<svg width="40" height="42" viewBox="0 0 40 42" fill="none" xmlns="http://www.w3.org/2000/svg">
<path id="Vector" d="M22.4282 41.8635L19.1987 33.9217C22.3093 32.7191 25.2218 31.1017 27.9164 29.2148L22.4282 41.8635ZM7.58834 21.7707L0 18.3908L12.0859 12.647C10.2829 15.4671 8.73749 18.5152 7.58834 21.7707ZM39.2295 0.806984C39.2295 0.806984 29.4222 -3.59104 18.2081 8.14739C13.869 12.6885 11.2735 17.6858 9.58945 22.061C9.03468 23.6161 9.41113 25.3165 10.5008 26.4777L14.721 30.8736C15.8107 32.0348 17.4354 32.408 18.9213 31.8274C23.1613 30.1271 27.8768 27.3486 32.2158 22.8075C43.4299 11.0711 39.2295 0.806984 39.2295 0.806984ZM25.2218 15.4671C23.6764 13.8497 23.6764 11.2163 25.2218 9.59888C26.7672 7.9815 29.2835 7.9815 30.8289 9.59888C32.3545 11.2163 32.3743 13.8497 30.8289 15.4671C29.2835 17.0844 26.7672 17.0844 25.2218 15.4671ZM8.77712 41.4695L15.989 33.9217C15.3154 33.7351 14.6615 33.4241 14.0672 32.9886L5.9835 41.4695H8.77712ZM0.376445 41.4695H3.17006L12.6208 31.5994L9.80739 28.6756L0.376445 38.5458V41.4695ZM0.376445 35.6013L8.47992 27.1412C8.06385 26.5191 7.76666 25.8556 7.58834 25.1298L0.376445 32.6776V35.6013Z" fill="#17A6D3"/>
</svg>
