<svg width="14" height="14" viewBox="0 0 14 14" fill="none" xmlns="http://www.w3.org/2000/svg">
<path d="M1.47368 0C0.655789 0 0 0.7 0 1.55556V12.4444C0 12.857 0.155263 13.2527 0.431632 13.5444C0.708001 13.8361 1.08284 14 1.47368 14H11.7895C12.1803 14 12.5552 13.8361 12.8315 13.5444C13.1079 13.2527 13.2632 12.857 13.2632 12.4444V10.6711C13.6979 10.3989 14 9.90889 14 9.33333V4.66667C14 4.09111 13.6979 3.60111 13.2632 3.32889V1.55556C13.2632 1.143 13.1079 0.747335 12.8315 0.455612C12.5552 0.163888 12.1803 0 11.7895 0H1.47368ZM1.47368 1.55556H11.7895V3.11111H7.36842C6.97758 3.11111 6.60274 3.275 6.32637 3.56672C6.05 3.85845 5.89474 4.25411 5.89474 4.66667V9.33333C5.89474 9.74589 6.05 10.1416 6.32637 10.4333C6.60274 10.725 6.97758 10.8889 7.36842 10.8889H11.7895V12.4444H1.47368V1.55556ZM7.36842 4.66667H12.5263V9.33333H7.36842V4.66667ZM9.57895 5.83333C9.28581 5.83333 9.00469 5.95625 8.79741 6.17504C8.59013 6.39383 8.47368 6.69058 8.47368 7C8.47368 7.30942 8.59013 7.60617 8.79741 7.82496C9.00469 8.04375 9.28581 8.16667 9.57895 8.16667C9.87208 8.16667 10.1532 8.04375 10.3605 7.82496C10.5678 7.60617 10.6842 7.30942 10.6842 7C10.6842 6.69058 10.5678 6.39383 10.3605 6.17504C10.1532 5.95625 9.87208 5.83333 9.57895 5.83333Z" fill="white"/>
</svg>
