<svg width="50" height="53" viewBox="0 0 50 53" fill="none" xmlns="http://www.w3.org/2000/svg">
<path d="M25 0C11.25 0 0 11.7477 0 26.2166C0 39.2987 9.14999 50.1568 21.1 52.1192V33.8042H14.75V26.2166H21.1V20.4343C21.1 13.867 24.825 10.2564 30.55 10.2564C33.275 10.2564 36.125 10.7535 36.125 10.7535V17.2161H32.975C29.875 17.2161 28.9 19.2307 28.9 21.2977V26.2166H35.85L34.725 33.8042H28.9V52.1192C34.7911 51.1454 40.1555 47.9996 44.0248 43.2496C47.8941 38.4996 50.0133 32.4584 49.9999 26.2166C49.9999 11.7477 38.75 0 25 0Z" fill="#EE3C99"/>
</svg>
