<svg width="95" height="95" viewBox="0 0 95 95" fill="none" xmlns="http://www.w3.org/2000/svg">
<circle cx="47.5" cy="47.5" r="47.5" fill="#1E1E1E"/>
<path d="M48.5 26L31 34.14V46.35C31 57.6442 38.4667 68.2059 48.5 70.77C58.5333 68.2059 66 57.6442 66 46.35V34.14L48.5 26ZM48.5 38.21C51.2222 38.21 53.9444 40.4485 53.9444 43.2975V46.35C55.1111 46.35 56.2778 47.571 56.2778 48.9955V56.118C56.2778 57.339 55.1111 58.56 53.75 58.56H43.0556C41.8889 58.56 40.7222 57.339 40.7222 55.9145V48.792C40.7222 47.571 41.8889 46.35 43.0556 46.35V43.2975C43.0556 40.4485 45.7778 38.21 48.5 38.21ZM48.5 40.652C46.9444 40.652 45.5833 41.6695 45.5833 43.2975V46.35H51.4167V43.2975C51.4167 41.6695 50.0556 40.652 48.5 40.652Z" fill="white"/>
</svg>
