<svg width="95" height="95" viewBox="0 0 95 95" fill="none" xmlns="http://www.w3.org/2000/svg">
<circle cx="47.5" cy="47.5" r="47.5" fill="#1E1E1E"/>
<path d="M49.4282 68.8635L46.1987 60.9217C49.3093 59.7191 52.2218 58.1017 54.9164 56.2148L49.4282 68.8635ZM34.5883 48.7707L27 45.3908L39.0859 39.647C37.2829 42.4671 35.7375 45.5152 34.5883 48.7707ZM66.2295 27.807C66.2295 27.807 56.4222 23.409 45.2081 35.1474C40.869 39.6885 38.2735 44.6858 36.5894 49.061C36.0347 50.6161 36.4111 52.3165 37.5008 53.4777L41.721 57.8736C42.8107 59.0348 44.4354 59.408 45.9213 58.8274C50.1613 57.1271 54.8768 54.3486 59.2158 49.8075C70.4299 38.0711 66.2295 27.807 66.2295 27.807ZM52.2218 42.4671C50.6764 40.8497 50.6764 38.2163 52.2218 36.5989C53.7672 34.9815 56.2835 34.9815 57.8289 36.5989C59.3545 38.2163 59.3743 40.8497 57.8289 42.4671C56.2835 44.0844 53.7672 44.0844 52.2218 42.4671ZM35.7771 68.4695L42.989 60.9217C42.3154 60.7351 41.6615 60.4241 41.0672 59.9886L32.9835 68.4695H35.7771ZM27.3764 68.4695H30.1701L39.6208 58.5994L36.8074 55.6756L27.3764 65.5458V68.4695ZM27.3764 62.6013L35.4799 54.1412C35.0639 53.5191 34.7667 52.8556 34.5883 52.1298L27.3764 59.6776V62.6013Z" fill="white"/>
</svg>
