<svg width="40" height="43" viewBox="0 0 40 43" fill="none" xmlns="http://www.w3.org/2000/svg">
<path id="Vector" d="M22.4282 42.6213L19.1987 34.6796C22.3093 33.4769 25.2218 31.8595 27.9164 29.9726L22.4282 42.6213ZM7.58834 22.5285L0 19.1486L12.0859 13.4048C10.2829 16.2249 8.73749 19.273 7.58834 22.5285ZM39.2295 1.5648C39.2295 1.5648 29.4222 -2.83322 18.2081 8.9052C13.869 13.4463 11.2735 18.4436 9.58945 22.8188C9.03468 24.374 9.41113 26.0743 10.5008 27.2355L14.721 31.6314C15.8107 32.7926 17.4354 33.1659 18.9213 32.5853C23.1613 30.8849 27.8768 28.1064 32.2158 23.5653C43.4299 11.8289 39.2295 1.5648 39.2295 1.5648ZM25.2218 16.2249C23.6764 14.6075 23.6764 11.9741 25.2218 10.3567C26.7672 8.73932 29.2835 8.73932 30.8289 10.3567C32.3545 11.9741 32.3743 14.6075 30.8289 16.2249C29.2835 17.8422 26.7672 17.8422 25.2218 16.2249ZM8.77712 42.2273L15.989 34.6796C15.3154 34.4929 14.6615 34.1819 14.0672 33.7465L5.9835 42.2273H8.77712ZM0.376445 42.2273H3.17006L12.6208 32.3572L9.80739 29.4334L0.376445 39.3036V42.2273ZM0.376445 36.3591L8.47992 27.899C8.06385 27.2769 7.76666 26.6134 7.58834 25.8877L0.376445 33.4354V36.3591Z" fill="#F14156"/>
</svg>
