<svg width="50" height="43" viewBox="0 0 50 43" fill="none" xmlns="http://www.w3.org/2000/svg">
<path d="M50 5.3289C48.1597 6.20438 46.1759 6.77969 44.1205 7.05484C46.2237 5.72912 47.849 3.62797 48.6138 1.10159C46.63 2.35228 44.4312 3.22775 42.1128 3.72803C40.2247 1.57685 37.5717 0.326172 34.5602 0.326172C28.9436 0.326172 24.3547 5.12879 24.3547 11.057C24.3547 11.9075 24.4503 12.7329 24.6176 13.5084C16.109 13.0581 8.53251 8.78078 3.48948 2.30225C2.60516 3.87811 2.10325 5.72912 2.10325 7.68018C2.10325 11.4072 3.89579 14.709 6.66826 16.585C4.97132 16.585 3.39388 16.0848 2.00765 15.3344C2.00765 15.3344 2.00765 15.3344 2.00765 15.4094C2.00765 20.6122 5.54493 24.9646 10.2294 25.9401C9.36903 26.1903 8.4608 26.3153 7.52868 26.3153C6.88337 26.3153 6.23805 26.2403 5.61664 26.1152C6.90727 30.3425 10.6597 33.4943 15.1769 33.5693C11.6874 36.4709 7.26577 38.1718 2.43786 38.1718C1.62524 38.1718 0.81262 38.1218 0 38.0217C4.54111 41.0734 9.94264 42.8494 15.7266 42.8494C34.5602 42.8494 44.9092 26.4904 44.9092 12.3077C44.9092 11.8324 44.9092 11.3822 44.8853 10.9069C46.8929 9.40612 48.6138 7.50509 50 5.3289Z" fill="#EE3C99"/>
</svg>
