<svg width="40" height="43" viewBox="0 0 40 43" fill="none" xmlns="http://www.w3.org/2000/svg">
<path id="Vector" d="M22.4282 42.1892L19.1987 34.2474C22.3093 33.0448 25.2218 31.4274 27.9164 29.5404L22.4282 42.1892ZM7.58834 22.0964L0 18.7165L12.0859 12.9727C10.2829 15.7927 8.73749 18.8409 7.58834 22.0964ZM39.2295 1.13267C39.2295 1.13267 29.4222 -3.26535 18.2081 8.47307C13.869 13.0142 11.2735 18.0115 9.58945 22.3867C9.03468 23.9418 9.41113 25.6422 10.5008 26.8033L14.721 31.1993C15.8107 32.3605 17.4354 32.7337 18.9213 32.1531C23.1613 30.4528 27.8768 27.6742 32.2158 23.1331C43.4299 11.3968 39.2295 1.13267 39.2295 1.13267ZM25.2218 15.7927C23.6764 14.1754 23.6764 11.5419 25.2218 9.92456C26.7672 8.30719 29.2835 8.30719 30.8289 9.92456C32.3545 11.5419 32.3743 14.1754 30.8289 15.7927C29.2835 17.4101 26.7672 17.4101 25.2218 15.7927ZM8.77712 41.7952L15.989 34.2474C15.3154 34.0608 14.6615 33.7498 14.0672 33.3143L5.9835 41.7952H8.77712ZM0.376445 41.7952H3.17006L12.6208 31.925L9.80739 29.0013L0.376445 38.8715V41.7952ZM0.376445 35.927L8.47992 27.4669C8.06385 26.8448 7.76666 26.1813 7.58834 25.4555L0.376445 33.0033V35.927Z" fill="#DEA71B"/>
</svg>
